<mxfile host="localhost" modified="2024-03-01T07:47:12.596Z" agent="Mozilla/5.0 (Windows NT 10.0; Win64; x64) AppleWebKit/537.36 (KHTML, like Gecko) Chrome/121.0.0.0 Safari/537.36" etag="gqDl-bdKq2YVtzhblbG1" version="22.1.7" type="device">
  <diagram name="第 1 页" id="r53Z4YJh2tUD6cJQxLub">
    <mxGraphModel dx="1050" dy="1726" grid="1" gridSize="10" guides="1" tooltips="1" connect="1" arrows="1" fold="1" page="1" pageScale="1" pageWidth="827" pageHeight="1169" math="0" shadow="0">
      <root>
        <mxCell id="0" />
        <mxCell id="1" parent="0" />
        <mxCell id="Z-w7qUdar1JvtYokiiGT-30" value="" style="rounded=0;whiteSpace=wrap;html=1;dashed=1;" vertex="1" parent="1">
          <mxGeometry x="286" y="25" width="153" height="260" as="geometry" />
        </mxCell>
        <mxCell id="Z-w7qUdar1JvtYokiiGT-2" value="app 1 ProxyServer" style="rounded=1;whiteSpace=wrap;html=1;" vertex="1" parent="1">
          <mxGeometry x="300" y="35" width="120" height="60" as="geometry" />
        </mxCell>
        <mxCell id="Z-w7qUdar1JvtYokiiGT-3" value="app 2 ProxyServer" style="rounded=1;whiteSpace=wrap;html=1;" vertex="1" parent="1">
          <mxGeometry x="300" y="115" width="120" height="60" as="geometry" />
        </mxCell>
        <mxCell id="Z-w7qUdar1JvtYokiiGT-4" value="app n ProxyServer" style="rounded=1;whiteSpace=wrap;html=1;" vertex="1" parent="1">
          <mxGeometry x="300" y="205" width="120" height="60" as="geometry" />
        </mxCell>
        <mxCell id="Z-w7qUdar1JvtYokiiGT-17" value="" style="edgeStyle=orthogonalEdgeStyle;rounded=0;orthogonalLoop=1;jettySize=auto;html=1;entryX=-0.012;entryY=0.662;entryDx=0;entryDy=0;entryPerimeter=0;" edge="1" parent="1" source="Z-w7qUdar1JvtYokiiGT-5" target="Z-w7qUdar1JvtYokiiGT-16">
          <mxGeometry relative="1" as="geometry">
            <mxPoint x="681" y="195" as="targetPoint" />
          </mxGeometry>
        </mxCell>
        <mxCell id="Z-w7qUdar1JvtYokiiGT-5" value="根据名称找对应的 ProxyClient" style="rounded=1;whiteSpace=wrap;html=1;" vertex="1" parent="1">
          <mxGeometry x="510" y="166" width="120" height="60" as="geometry" />
        </mxCell>
        <mxCell id="Z-w7qUdar1JvtYokiiGT-11" style="edgeStyle=orthogonalEdgeStyle;rounded=0;orthogonalLoop=1;jettySize=auto;html=1;entryX=0;entryY=0.5;entryDx=0;entryDy=0;" edge="1" parent="1" source="Z-w7qUdar1JvtYokiiGT-6" target="Z-w7qUdar1JvtYokiiGT-10">
          <mxGeometry relative="1" as="geometry" />
        </mxCell>
        <mxCell id="Z-w7qUdar1JvtYokiiGT-12" value="根据不同端口请求不同目标应用" style="edgeLabel;html=1;align=center;verticalAlign=middle;resizable=0;points=[];rotation=90;" vertex="1" connectable="0" parent="Z-w7qUdar1JvtYokiiGT-11">
          <mxGeometry x="-0.2843" y="-3" relative="1" as="geometry">
            <mxPoint x="8" y="-99" as="offset" />
          </mxGeometry>
        </mxCell>
        <mxCell id="Z-w7qUdar1JvtYokiiGT-6" value="" style="sketch=0;outlineConnect=0;fontColor=#232F3E;gradientColor=none;fillColor=#232F3D;strokeColor=none;dashed=0;verticalLabelPosition=bottom;verticalAlign=top;align=center;html=1;fontSize=12;fontStyle=0;aspect=fixed;pointerEvents=1;shape=mxgraph.aws4.user;" vertex="1" parent="1">
          <mxGeometry x="142" y="156" width="78" height="78" as="geometry" />
        </mxCell>
        <mxCell id="Z-w7qUdar1JvtYokiiGT-10" value="frps" style="swimlane;whiteSpace=wrap;html=1;" vertex="1" parent="1">
          <mxGeometry x="260" y="-10" width="210" height="410" as="geometry" />
        </mxCell>
        <mxCell id="Z-w7qUdar1JvtYokiiGT-28" style="edgeStyle=orthogonalEdgeStyle;rounded=0;orthogonalLoop=1;jettySize=auto;html=1;entryX=0;entryY=0.5;entryDx=0;entryDy=0;" edge="1" parent="1" target="Z-w7qUdar1JvtYokiiGT-5">
          <mxGeometry relative="1" as="geometry">
            <mxPoint x="470" y="195" as="sourcePoint" />
            <mxPoint x="540" y="195" as="targetPoint" />
          </mxGeometry>
        </mxCell>
        <mxCell id="Z-w7qUdar1JvtYokiiGT-29" value="" style="edgeStyle=orthogonalEdgeStyle;rounded=0;orthogonalLoop=1;jettySize=auto;html=1;" edge="1" parent="1" source="Z-w7qUdar1JvtYokiiGT-16" target="Z-w7qUdar1JvtYokiiGT-18">
          <mxGeometry relative="1" as="geometry" />
        </mxCell>
        <mxCell id="Z-w7qUdar1JvtYokiiGT-16" value="" style="rounded=0;whiteSpace=wrap;html=1;dashed=1;" vertex="1" parent="1">
          <mxGeometry x="659" y="24" width="153" height="260" as="geometry" />
        </mxCell>
        <mxCell id="Z-w7qUdar1JvtYokiiGT-13" value="app 1 ProxyClient" style="rounded=1;whiteSpace=wrap;html=1;" vertex="1" parent="1">
          <mxGeometry x="672" y="39" width="120" height="60" as="geometry" />
        </mxCell>
        <mxCell id="Z-w7qUdar1JvtYokiiGT-14" value="app 2 ProxyClient" style="rounded=1;whiteSpace=wrap;html=1;" vertex="1" parent="1">
          <mxGeometry x="672" y="119" width="120" height="60" as="geometry" />
        </mxCell>
        <mxCell id="Z-w7qUdar1JvtYokiiGT-15" value="app n ProxyClient" style="rounded=1;whiteSpace=wrap;html=1;" vertex="1" parent="1">
          <mxGeometry x="672" y="209" width="120" height="60" as="geometry" />
        </mxCell>
        <mxCell id="Z-w7qUdar1JvtYokiiGT-21" value="" style="edgeStyle=orthogonalEdgeStyle;rounded=0;orthogonalLoop=1;jettySize=auto;html=1;" edge="1" parent="1" source="Z-w7qUdar1JvtYokiiGT-18" target="Z-w7qUdar1JvtYokiiGT-20">
          <mxGeometry relative="1" as="geometry" />
        </mxCell>
        <mxCell id="Z-w7qUdar1JvtYokiiGT-22" value="" style="edgeStyle=orthogonalEdgeStyle;rounded=0;orthogonalLoop=1;jettySize=auto;html=1;" edge="1" parent="1" source="Z-w7qUdar1JvtYokiiGT-18" target="Z-w7qUdar1JvtYokiiGT-19">
          <mxGeometry relative="1" as="geometry" />
        </mxCell>
        <mxCell id="Z-w7qUdar1JvtYokiiGT-18" value="建立隧道通讯" style="rounded=1;whiteSpace=wrap;html=1;" vertex="1" parent="1">
          <mxGeometry x="675.5" y="310" width="120" height="60" as="geometry" />
        </mxCell>
        <mxCell id="Z-w7qUdar1JvtYokiiGT-19" value="目标服务器" style="sketch=0;outlineConnect=0;fontColor=#232F3E;gradientColor=none;fillColor=#232F3D;strokeColor=none;dashed=0;verticalLabelPosition=bottom;verticalAlign=top;align=center;html=1;fontSize=12;fontStyle=0;aspect=fixed;pointerEvents=1;shape=mxgraph.aws4.traditional_server;" vertex="1" parent="1">
          <mxGeometry x="856" y="301" width="45" height="78" as="geometry" />
        </mxCell>
        <mxCell id="Z-w7qUdar1JvtYokiiGT-26" value="" style="edgeStyle=orthogonalEdgeStyle;rounded=0;orthogonalLoop=1;jettySize=auto;html=1;" edge="1" parent="1" source="Z-w7qUdar1JvtYokiiGT-20" target="Z-w7qUdar1JvtYokiiGT-25">
          <mxGeometry relative="1" as="geometry" />
        </mxCell>
        <mxCell id="Z-w7qUdar1JvtYokiiGT-20" value="通过目标服务器名称请求建立工作连接" style="rounded=1;whiteSpace=wrap;html=1;" vertex="1" parent="1">
          <mxGeometry x="511" y="310" width="120" height="60" as="geometry" />
        </mxCell>
        <mxCell id="Z-w7qUdar1JvtYokiiGT-27" value="" style="edgeStyle=orthogonalEdgeStyle;rounded=0;orthogonalLoop=1;jettySize=auto;html=1;entryX=0.5;entryY=1;entryDx=0;entryDy=0;" edge="1" parent="1" source="Z-w7qUdar1JvtYokiiGT-25" target="Z-w7qUdar1JvtYokiiGT-30">
          <mxGeometry relative="1" as="geometry">
            <mxPoint x="360" y="300" as="targetPoint" />
          </mxGeometry>
        </mxCell>
        <mxCell id="Z-w7qUdar1JvtYokiiGT-25" value="通过名称查找与同名ProxyServer 用户连接建立隧道通讯" style="whiteSpace=wrap;html=1;rounded=1;" vertex="1" parent="1">
          <mxGeometry x="302" y="310" width="120" height="60" as="geometry" />
        </mxCell>
        <mxCell id="Z-w7qUdar1JvtYokiiGT-31" value="frpc" style="swimlane;whiteSpace=wrap;html=1;" vertex="1" parent="1">
          <mxGeometry x="470" y="-10" width="360" height="410" as="geometry" />
        </mxCell>
      </root>
    </mxGraphModel>
  </diagram>
</mxfile>
